<svg id="Layer_1" enable-background="new 0 0 256 256" height="512" viewBox="0 0 256 256" width="512" xmlns="http://www.w3.org/2000/svg"><g fill="#ffea92"><path d="m128 55.24c-2.77 0-5.016-2.246-5.016-5.016v-27.59c0-2.77 2.246-5.016 5.016-5.016 2.77 0 5.016 2.246 5.016 5.016v27.59c0 2.77-2.246 5.016-5.016 5.016z"/><path d="m190.635 117.874c0-2.77 2.246-5.016 5.016-5.016h27.59c2.77 0 5.016 2.246 5.016 5.016 0 2.77-2.246 5.016-5.016 5.016h-27.59c-2.77.001-5.016-2.245-5.016-5.016z"/><path d="m27.743 117.874c0-2.77 2.246-5.016 5.016-5.016h27.59c2.77 0 5.016 2.246 5.016 5.016 0 2.77-2.246 5.016-5.016 5.016h-27.59c-2.771.001-5.016-2.245-5.016-5.016z"/><path d="m57.107 46.982c1.959-1.959 5.135-1.959 7.094 0l19.509 19.509c1.959 1.959 1.959 5.135 0 7.094-1.959 1.959-5.135 1.959-7.094 0l-19.509-19.509c-1.959-1.959-1.959-5.135 0-7.094z"/><path d="m198.893 46.982c1.959 1.959 1.959 5.135 0 7.094l-19.509 19.509c-1.959 1.959-5.135 1.959-7.094 0-1.959-1.959-1.959-5.135 0-7.094l19.509-19.509c1.959-1.959 5.135-1.959 7.094 0z"/></g><path d="m128 57.24c-3.869 0-7.017-3.147-7.017-7.017v-27.59c0-3.869 3.147-7.017 7.017-7.017s7.017 3.147 7.017 7.017v27.59c0 3.869-3.148 7.017-7.017 7.017zm0-37.623c-1.663 0-3.017 1.353-3.017 3.017v27.59c0 1.664 1.354 3.017 3.017 3.017s3.017-1.353 3.017-3.017v-27.59c0-1.664-1.354-3.017-3.017-3.017z" fill="#3762cc"/><path d="m223.241 124.891h-27.59c-3.869 0-7.017-3.147-7.017-7.016s3.147-7.017 7.017-7.017h27.59c3.869 0 7.017 3.147 7.017 7.017 0 3.868-3.148 7.016-7.017 7.016zm-27.59-10.033c-1.663 0-3.017 1.353-3.017 3.017 0 1.663 1.354 3.016 3.017 3.016h27.59c1.663 0 3.017-1.353 3.017-3.016 0-1.664-1.354-3.017-3.017-3.017z" fill="#3762cc"/><path d="m60.349 124.891h-27.59c-3.869 0-7.017-3.147-7.017-7.016s3.147-7.017 7.017-7.017h27.59c3.869 0 7.017 3.147 7.017 7.017-.001 3.868-3.148 7.016-7.017 7.016zm-27.59-10.033c-1.663 0-3.017 1.353-3.017 3.017 0 1.663 1.354 3.016 3.017 3.016h27.59c1.663 0 3.017-1.353 3.017-3.016 0-1.664-1.354-3.017-3.017-3.017z" fill="#3762cc"/><path d="m80.164 77.051c-1.797 0-3.594-.684-4.962-2.052l-19.509-19.509c-2.735-2.735-2.735-7.187 0-9.922 2.734-2.736 7.188-2.736 9.922 0l19.51 19.509c2.735 2.735 2.735 7.187 0 9.922-1.368 1.368-3.165 2.052-4.961 2.052zm-19.51-29.537c-.772 0-1.545.294-2.133.882-1.176 1.176-1.176 3.09 0 4.266l19.509 19.509c1.178 1.178 3.093 1.175 4.267 0 1.176-1.176 1.176-3.09 0-4.266l-19.51-19.509c-.588-.588-1.36-.882-2.133-.882z" fill="#3762cc"/><path d="m175.836 77.051c-1.796 0-3.593-.684-4.961-2.052-2.735-2.735-2.735-7.187 0-9.922l19.51-19.509c2.734-2.735 7.186-2.736 9.922 0 2.735 2.735 2.735 7.187 0 9.922l-19.509 19.509c-1.368 1.368-3.165 2.052-4.962 2.052zm19.51-29.537c-.772 0-1.545.294-2.133.882l-19.51 19.509c-1.176 1.176-1.176 3.09 0 4.266 1.176 1.175 3.091 1.177 4.267 0l19.509-19.509c1.176-1.176 1.176-3.09 0-4.266-.588-.588-1.361-.882-2.133-.882z" fill="#3762cc"/><path d="m233 174.383c-12.864 0-19.729-5.23-25.244-9.432-5.005-3.813-8.621-6.568-16.759-6.568-8.139 0-11.755 2.755-16.76 6.568-5.516 4.202-12.381 9.432-25.244 9.432-12.862 0-19.727-5.23-25.241-9.432-5.005-3.813-8.62-6.568-16.756-6.568-8.138 0-11.753 2.755-16.758 6.568-5.515 4.202-12.379 9.432-25.241 9.432s-19.727-5.23-25.241-9.432c-5.005-3.813-8.62-6.568-16.756-6.568-3.866 0-7-3.134-7-7s3.134-7 7-7c12.862 0 19.726 5.23 25.24 9.432 5.005 3.813 8.62 6.568 16.757 6.568s11.752-2.755 16.757-6.568c5.516-4.202 12.379-9.432 25.242-9.432 12.862 0 19.726 5.23 25.24 9.432 5.005 3.813 8.62 6.568 16.757 6.568 8.139 0 11.755-2.755 16.76-6.568 5.516-4.202 12.381-9.432 25.244-9.432s19.728 5.23 25.243 9.432c5.005 3.813 8.621 6.568 16.76 6.568 3.866 0 7 3.134 7 7s-3.134 7-7 7z" fill="#a4c9ff"/><path d="m233 204.383c-12.864 0-19.729-5.23-25.244-9.432-5.005-3.813-8.621-6.568-16.759-6.568-8.139 0-11.755 2.755-16.76 6.568-5.516 4.202-12.381 9.432-25.244 9.432-12.862 0-19.727-5.23-25.241-9.432-5.005-3.813-8.62-6.568-16.756-6.568-8.138 0-11.753 2.755-16.758 6.568-5.515 4.202-12.379 9.432-25.241 9.432s-19.727-5.23-25.241-9.432c-5.005-3.813-8.62-6.568-16.756-6.568-3.866 0-7-3.134-7-7s3.134-7 7-7c12.862 0 19.726 5.23 25.24 9.432 5.005 3.813 8.62 6.568 16.757 6.568s11.752-2.755 16.757-6.568c5.516-4.202 12.379-9.432 25.242-9.432 12.862 0 19.726 5.23 25.24 9.432 5.005 3.813 8.62 6.568 16.757 6.568 8.139 0 11.755-2.755 16.76-6.568 5.516-4.202 12.381-9.432 25.244-9.432s19.728 5.23 25.243 9.432c5.005 3.813 8.621 6.568 16.76 6.568 3.866 0 7 3.134 7 7s-3.134 7-7 7z" fill="#a4c9ff"/><path d="m233 238.383c-12.864 0-19.729-5.23-25.244-9.432-5.005-3.813-8.621-6.568-16.759-6.568-8.139 0-11.755 2.755-16.76 6.568-5.516 4.202-12.381 9.432-25.244 9.432-12.862 0-19.727-5.23-25.241-9.432-5.005-3.813-8.62-6.568-16.756-6.568-8.138 0-11.753 2.755-16.758 6.568-5.515 4.202-12.379 9.432-25.241 9.432s-19.727-5.23-25.241-9.432c-5.005-3.813-8.62-6.568-16.756-6.568-3.866 0-7-3.134-7-7s3.134-7 7-7c12.862 0 19.726 5.23 25.24 9.432 5.005 3.813 8.62 6.568 16.757 6.568s11.752-2.755 16.757-6.568c5.516-4.202 12.379-9.432 25.242-9.432 12.862 0 19.726 5.23 25.24 9.432 5.005 3.813 8.62 6.568 16.757 6.568 8.139 0 11.755-2.755 16.76-6.568 5.516-4.202 12.381-9.432 25.244-9.432s19.728 5.23 25.243 9.432c5.005 3.813 8.621 6.568 16.76 6.568 3.866 0 7 3.134 7 7s-3.134 7-7 7z" fill="#a4c9ff"/><path d="m106.996 144.383c12.862 0 19.726 5.23 25.24 9.432 5.005 3.813 8.62 6.568 16.757 6.568 8.139 0 11.755-2.755 16.76-6.568 1.378-1.049 2.839-2.163 4.458-3.243 7.01-9.037 11.194-20.375 11.194-32.697 0-29.495-23.91-53.405-53.405-53.405s-53.405 23.91-53.405 53.405c0 12.408 4.244 23.819 11.343 32.886 4.899-3.319 11.222-6.378 21.058-6.378z" fill="#ffea92"/><path d="m85.938 152.76c-.594 0-1.182-.263-1.576-.767-7.698-9.833-11.768-21.63-11.768-34.119 0-30.551 24.854-55.405 55.405-55.405s55.405 24.854 55.405 55.405c0 12.398-4.016 24.128-11.614 33.923-.676.873-1.935 1.031-2.806.354-.873-.677-1.031-1.933-.354-2.806 7.049-9.087 10.774-19.969 10.774-31.471 0-28.345-23.061-51.405-51.405-51.405s-51.404 23.061-51.404 51.406c0 11.585 3.775 22.531 10.918 31.653.681.87.527 2.126-.342 2.808-.366.286-.801.424-1.233.424z" fill="#3762cc"/></svg>